# xmcd CD database file
#
# Track frame offsets:
#	150
#	13330
#	28350
#	42980
#	54522
#	77435
#	93865
#	109570
#	124837
#	139225
#	154210
#	171627
#	185890
#	201230
#	217682
#	231062
#	247055
#	260152
#	274225
#	289005
#
# Disc length: 4027 seconds
#
# Revision: 2
# Processed by: cddbd v1.4PL0 Copyright (c) Steve Scherf et al.
# Submitted via: CDex 1.40Beta9
#
DISCID=300fb914
DTITLE=Dancehall Racketeers - Yarraville Sessions
DYEAR=1999
DGENRE=Country
TTITLE0=Sally's Got A Woden Leg
TTITLE1=Shake Rattle And Roll
TTITLE2=Gettin' That Lowdown Swing
TTITLE3=Beaumont
TTITLE4=Graveyard Dream Blues
TTITLE5=J'fait Un Gross Error
TTITLE6=Stockcar Boogie
TTITLE7=Faded Love
TTITLE8=You Don't Know My Mind
TTITLE9=Crazy 'bout You
TTITLE10=In The Pines
TTITLE11=Swing With The Music
TTITLE12=Sloppy Drunk
TTITLE13=Mardi Gras Twist
TTITLE14=Hillbilly Stomp
TTITLE15=Dusty Skies
TTITLE16=Right Key, Wrong Keyhole
TTITLE17=Blues Stay Away From Me
TTITLE18=Blue and Lonesome
TTITLE19=Smith's Reel
EXTD=YEAR: 1999 ID3G: 2
EXTT0=
EXTT1=
EXTT2=
EXTT3=
EXTT4=
EXTT5=
EXTT6=
EXTT7=
EXTT8=
EXTT9=
EXTT10=
EXTT11=
EXTT12=
EXTT13=
EXTT14=
EXTT15=
EXTT16=
EXTT17=
EXTT18=
EXTT19=
PLAYORDER=
